<svg width="632" height="101" viewBox="0 0 632 101" fill="none" xmlns="http://www.w3.org/2000/svg">
<g clip-path="url(#clip0_488_1658)">
<path d="M48.2997 0C50.047 0.215624 50.1015 1.47962 50.1015 2.91216C50.0933 14.3856 50.0875 20.9741 50.0842 22.6776C50.0809 24.2077 49.3522 24.9718 47.8982 24.9702C47.6388 24.9702 41.0825 24.9702 28.2294 24.9702C27.0744 24.9702 26.3235 24.8694 25.9765 24.6678C25.3536 24.3093 25.0413 23.6459 25.0396 22.6776C25.0215 15.5712 25.0297 8.73482 25.0644 2.16863C25.071 0.836884 25.6906 0.114008 26.9233 0H48.2997Z" fill="white" fill-opacity="0.2"/>
<path d="M98.428 0C99.54 0.181752 100.095 0.822013 100.094 1.92078C100.082 14.8665 100.078 21.8061 100.081 22.7396C100.086 23.6599 99.7945 24.3076 99.2063 24.6827C98.856 24.9041 98.1306 25.014 97.0302 25.0123C90.6623 24.9958 84.4224 24.9975 78.3106 25.0173C77.1143 25.0206 76.3452 24.9206 76.0032 24.7174C75.377 24.344 75.063 23.6649 75.0614 22.6801C75.0597 20.747 75.0605 13.8577 75.0639 2.01249C75.0639 0.890583 75.5926 0.219754 76.65 0H98.428Z" fill="white"/>
<path d="M218.863 24.5786H167.198C166.482 24.5786 165.901 25.159 165.901 25.8748V36.7105C165.901 37.4264 166.482 38.0068 167.198 38.0068H218.863C219.579 38.0068 220.159 37.4264 220.159 36.7105V25.8748C220.159 25.159 219.579 24.5786 218.863 24.5786Z" fill="white"/>
<path d="M237.697 51.7473C237.692 51.7178 237.677 51.6908 237.654 51.6712C237.631 51.6517 237.601 51.6408 237.57 51.6407H225.376C225.342 51.6407 225.308 51.6334 225.276 51.6194C225.244 51.6053 225.215 51.5847 225.19 51.5589C224.759 51.0855 224.479 50.6914 224.482 49.9083C224.49 45.652 224.488 41.7897 224.477 38.3216C224.476 38.2588 224.488 38.1964 224.511 38.1381C224.535 38.0798 224.571 38.0267 224.615 37.982L237.83 24.7695C237.891 24.7083 237.963 24.6596 238.043 24.6264C238.122 24.5932 238.208 24.5762 238.294 24.5762C254.022 24.5812 267.337 24.5803 278.239 24.5737C280.566 24.5737 282.442 24.9034 284.378 25.8179C288.178 27.609 290.666 30.5839 291.843 34.7427C292.006 35.3194 292.132 36.1331 292.22 37.184C292.279 37.9077 292.309 38.7297 292.309 39.65C292.297 52.7758 292.298 65.0705 292.311 76.534C292.313 77.2528 292.228 77.7609 292.056 78.0583C291.795 78.5127 291.35 78.7382 290.723 78.7349C287.676 78.72 284.15 78.7184 280.145 78.7299C279.798 78.7299 279.379 78.5399 278.888 78.1599C278.856 78.1357 278.829 78.1052 278.81 78.0702C278.79 78.0353 278.778 77.9966 278.774 77.9567C278.738 77.5932 278.72 77.2801 278.72 77.0173C278.7 73.0965 278.704 69.6845 278.732 66.7814C278.74 66.0082 278.423 65.4736 277.78 65.1779C277.762 65.1697 277.743 65.1655 277.723 65.1655C261.443 65.1754 248.634 65.1754 239.295 65.1655C239.011 65.1655 238.757 65.2291 238.534 65.3563C238.463 65.3967 238.405 65.4579 238.368 65.5323C238.211 65.8462 238.133 66.2461 238.133 66.7319C238.134 71.6358 238.138 75.1767 238.143 77.3544C238.144 77.3872 238.14 77.4199 238.13 77.4511C237.83 78.4053 237.288 78.7374 236.227 78.7349C232.213 78.7233 228.635 78.72 225.49 78.725C225.175 78.7266 224.861 78.5416 224.549 78.1698C224.499 78.1106 224.472 78.0351 224.472 77.9567C224.482 74.0878 224.457 71.9093 225.287 68.6799C226.326 64.6334 228.267 61.1364 231.109 58.1887C232.345 56.9049 234.461 54.9461 237.456 52.3123C237.654 52.1364 237.734 51.9802 237.697 51.7473ZM238.066 51.435C238.062 51.4605 238.064 51.4865 238.072 51.5112C238.079 51.536 238.092 51.5588 238.108 51.5783C238.125 51.5978 238.146 51.6134 238.17 51.6242C238.193 51.6349 238.219 51.6406 238.244 51.6407H277.693C277.748 51.6406 277.801 51.6223 277.842 51.5886L278.549 51.0483C278.6 51.009 278.642 50.9581 278.671 50.8997C278.7 50.8412 278.715 50.7767 278.715 50.7113C278.708 44.7482 278.71 40.9999 278.72 39.4666C278.727 38.2596 277.917 38.0837 276.841 38.0837C258.975 38.0919 246.688 38.0903 239.979 38.0787C238.802 38.0762 238.081 38.3191 238.115 39.5806C238.139 40.4729 238.145 44.2153 238.135 50.8079C238.135 50.9054 238.112 51.1144 238.066 51.435Z" fill="white"/>
<path d="M357.115 31.2778C357.697 31.8577 358.322 32.5872 358.991 33.4662C361.341 36.5477 362.857 39.9333 363.539 43.6228C363.777 44.9066 363.894 46.8968 363.891 49.5934C363.883 61.9591 363.892 71.1425 363.918 77.1436C363.926 78.5414 363.143 78.7818 361.911 78.7447C361.732 78.7397 358.345 78.7405 351.749 78.7472C350.597 78.7496 350.376 77.902 350.374 76.871C350.362 63.081 350.35 50.6707 350.337 39.64C350.335 39.1608 350.193 38.78 349.91 38.4974C349.626 38.2149 349.245 38.0736 348.768 38.0736C337.737 38.0852 325.327 38.1 311.537 38.1182C310.506 38.1182 309.656 37.9001 309.656 36.7477C309.649 30.1517 309.642 26.7645 309.636 26.5861C309.596 25.3543 309.837 24.5686 311.234 24.5736C317.235 24.5868 326.419 24.5761 338.785 24.5414C341.481 24.5315 343.471 24.6438 344.755 24.8784C348.446 25.5542 351.835 27.0628 354.922 29.4041C355.802 30.0732 356.533 30.6978 357.115 31.2778Z" fill="white"/>
<path d="M402.125 24.5787C421.918 24.582 432.678 24.5853 434.407 24.5886C436.151 24.591 436.037 25.7807 436.035 27.2603C436.032 30.4955 436.026 33.6348 436.018 36.6784C436.014 37.6185 435.539 38.0886 434.593 38.0886C426.475 38.0952 418.574 38.0935 410.889 38.0836C409.761 38.0811 408.916 38.2472 408.918 39.5112C408.922 49.5902 408.919 62.1955 408.911 77.3271C408.911 78.264 408.195 78.6779 407.33 78.7225C407.292 78.7241 405.554 78.7249 402.115 78.7249C398.678 78.7249 396.941 78.7233 396.903 78.72C396.038 78.6754 395.322 78.2615 395.322 77.3246C395.318 62.193 395.32 49.5877 395.327 39.5087C395.329 38.2447 394.487 38.0787 393.359 38.0811C385.674 38.0878 377.773 38.0861 369.655 38.0762C368.708 38.0762 368.233 37.6061 368.23 36.666C368.222 33.6224 368.217 30.4831 368.215 27.2479C368.213 25.7683 368.099 24.5787 369.846 24.5787C371.573 24.5753 382.332 24.5753 402.125 24.5787Z" fill="white"/>
<path d="M453.593 38.0812C453.657 38.0805 453.719 38.0547 453.764 38.0092C453.809 37.9637 453.834 37.9023 453.834 37.8383C453.819 34.1091 453.816 30.3609 453.826 26.5937C453.826 26.0311 453.826 25.632 454.079 25.2107C454.332 24.7927 454.796 24.5837 455.472 24.5837C464.722 24.582 474.41 24.5787 484.537 24.5737C487.136 24.5721 489.47 24.8926 491.541 25.5354C500.022 28.1724 506.03 34.8047 507.72 43.5783C507.979 44.9217 508.101 46.6202 508.084 48.674C508.071 50.0851 508.066 59.632 508.069 77.3148C508.071 78.2698 507.537 78.744 506.468 78.7374C503.139 78.7225 488.848 78.7175 463.596 78.7225C456.644 78.7225 449.474 75.4163 445.244 69.8324C442.646 66.4047 441.075 62.6647 440.517 58.4588C440.421 57.7351 440.373 56.4282 440.371 54.538C440.363 47.9371 440.365 42.8175 440.378 39.1791C440.379 39.0278 440.418 38.879 440.491 38.7465C440.564 38.614 440.67 38.502 440.797 38.4207C441.199 38.1655 441.528 38.0738 442.081 38.0762C446.187 38.101 450.024 38.1027 453.593 38.0812ZM453.831 38.2646C453.737 40.5596 453.831 42.3862 453.831 45.2414C453.826 56.4455 453.828 62.5086 453.836 63.4306C453.846 64.3352 454.186 65.1556 455.12 65.163C456.187 65.1729 468.85 65.1729 493.107 65.163C494.06 65.163 494.537 64.7194 494.537 63.8321C494.535 48.5435 494.54 40.6282 494.549 40.0862C494.569 38.8371 494.364 38.0787 492.966 38.0787C476.592 38.0969 463.614 38.0944 454.032 38.0713C453.98 38.0712 453.93 38.0914 453.893 38.1274C453.855 38.1635 453.833 38.2126 453.831 38.2646Z" fill="white"/>
<path d="M579.579 51.5069C579.553 51.5951 579.5 51.6726 579.426 51.728C579.353 51.7834 579.264 51.8136 579.172 51.8142C576.125 51.8258 572.359 51.8258 567.873 51.8142C567.853 51.8142 567.538 51.7762 566.926 51.7002C566.842 51.6889 566.765 51.6515 566.706 51.5936C566.385 51.2764 566.224 51.0054 566.222 50.7807C566.204 47.7141 566.207 44.1055 566.23 39.9549C566.236 38.7752 565.668 38.1853 564.525 38.1853C539.525 38.182 526.784 38.1837 526.3 38.1903C526.279 38.1903 526.258 38.1862 526.238 38.1781C526.218 38.17 526.201 38.1582 526.186 38.1432C525.659 37.6046 525.396 37.1584 525.398 36.8048C525.419 33.2243 525.419 29.7694 525.398 26.44C525.394 25.8271 525.467 25.4008 525.616 25.1612C525.862 24.7696 526.233 24.5746 526.729 24.5763C541.713 24.5928 550.926 24.5887 554.368 24.5639C557.012 24.5457 559.067 24.6696 560.534 24.9356C566.17 25.9535 570.826 28.6905 574.5 33.1467C577.286 36.5256 578.968 40.4738 579.546 44.9911C579.641 45.733 579.687 46.7326 579.685 47.99C579.685 49.5911 579.784 50.808 579.579 51.5069Z" fill="white"/>
<path d="M632 35.5927V45.8807C631.068 47.105 629.993 48.3054 628.775 49.4819C627.99 50.2403 627.538 50.7806 627.417 51.1028C627.168 51.7686 627.356 52.4105 627.982 53.0285C629.864 54.8906 631.203 56.3289 632 57.3434V67.3489C631.811 67.8611 631.387 68.4493 630.726 69.1135C627.223 72.6263 624.218 75.6326 621.712 78.1325C621.333 78.5092 620.919 78.6993 620.47 78.7026C618.208 78.7125 611.395 78.7133 600.03 78.705C599.682 78.705 599.322 78.5216 598.952 78.1548C597.082 76.301 594.051 73.2781 589.859 69.0863C589.352 68.5807 588.981 68.1263 588.746 67.7231C588.658 67.5722 588.612 67.4011 588.612 67.2274C588.617 63.9873 588.619 60.8075 588.617 57.6879C588.617 57.2815 588.868 56.823 589.371 56.3124C590.222 55.4433 591.253 54.4115 592.464 53.2169C593.528 52.166 593.533 51.1184 592.479 50.0742C591.049 48.6598 589.998 47.609 589.324 46.9216C589.016 46.611 588.794 46.2632 588.657 45.8782C588.627 45.7962 588.612 45.7107 588.612 45.6254C588.614 40.847 588.616 37.6622 588.617 36.0711C588.619 35.658 588.839 35.2292 589.279 34.7848C592.199 31.8371 595.356 28.6763 598.752 25.3023C599.324 24.7347 599.669 24.5563 600.529 24.5563C602.738 24.5612 609.427 24.5621 620.596 24.5588C620.891 24.5588 621.212 24.7273 621.561 25.0644C625.189 28.5655 628.669 32.075 632 35.5927ZM621.195 37.3367C621.195 37.0845 621.146 36.8346 621.05 36.6014C620.954 36.3682 620.813 36.1562 620.635 35.9775C620.457 35.7989 620.245 35.657 620.012 35.5601C619.779 35.4631 619.53 35.413 619.277 35.4126L601.378 35.3813C601.126 35.3809 600.876 35.4301 600.643 35.5262C600.41 35.6224 600.198 35.7635 600.019 35.9415C599.84 36.1196 599.699 36.3311 599.602 36.564C599.505 36.7968 599.455 37.0465 599.454 37.2988L599.442 44.278C599.442 44.5302 599.491 44.7801 599.587 45.0133C599.683 45.2465 599.824 45.4585 600.002 45.6372C600.18 45.8158 600.392 45.9577 600.625 46.0546C600.857 46.1516 601.107 46.2017 601.359 46.2021L619.259 46.2334C619.511 46.2338 619.761 46.1846 619.994 46.0885C620.227 45.9923 620.439 45.8512 620.618 45.6732C620.796 45.4951 620.938 45.2836 621.035 45.0507C621.132 44.8179 621.182 44.5682 621.183 44.3159L621.195 37.3367ZM621.189 59.056C621.189 58.5223 620.977 58.0104 620.599 57.633C620.222 57.2556 619.71 57.0436 619.176 57.0436H601.456C600.922 57.0436 600.41 57.2556 600.033 57.633C599.655 58.0104 599.443 58.5223 599.443 59.056V65.8668C599.443 66.4005 599.655 66.9124 600.033 67.2898C600.41 67.6672 600.922 67.8793 601.456 67.8793H619.176C619.71 67.8793 620.222 67.6672 620.599 67.2898C620.977 66.9124 621.189 66.4005 621.189 65.8668V59.056Z" fill="white"/>
<path d="M0 73.3963V26.7051C0.114008 25.3866 1.20204 24.9182 2.41895 24.9256C9.32055 24.9619 15.743 24.9619 21.6863 24.9256C23.0271 24.9157 24.3357 24.824 24.9528 26.2565C25.0602 26.506 25.1139 27.0199 25.1139 27.7981C25.1073 51.3862 25.1065 66.3476 25.1115 72.6825C25.1115 73.8474 24.5877 74.6099 23.5401 74.9701C23.3237 75.0444 22.8297 75.0783 22.058 75.0717C16.7377 75.0254 10.1302 75.0155 2.23555 75.042C0.98972 75.0469 0.244539 74.4984 0 73.3963Z" fill="white" fill-opacity="0.498"/>
<path d="M125.138 70.4048L125.121 73.5078C124.836 74.5389 124.105 75.0527 122.927 75.0494C115.971 75.0329 109.074 75.0329 102.235 75.0494C101.082 75.0544 100.049 74.3778 100.044 73.1138C100.032 70.9212 100.031 68.7286 100.041 66.536L100.044 65.8743L100.041 65.6066V65.1307L100.044 64.6152V64.1394L100.041 63.6238L100.044 63.148V62.5086L100.046 62.1566L100.044 61.6411V61.1652V60.5258L100.046 60.1739L100.044 59.6584V59.1825V58.5431L100.046 58.1911L100.044 57.6756V57.1997V56.5603L100.046 56.2084L100.044 55.6929V55.217L100.046 54.5776V54.2256L100.044 53.7101V53.2343L100.046 52.5948V52.2429L100.044 51.7274V51.2515L100.046 50.6121V50.2601L100.044 49.7446V49.2688L100.046 48.6293V48.2774L100.044 47.7619V47.286L100.046 46.6466V46.2947L100.044 45.7791V45.3033L100.046 44.6638V44.3119L100.044 43.7964V43.3205L100.046 42.6811L100.049 42.3292L100.044 41.8137L100.046 41.3378V40.6984L100.049 40.3464L100.044 39.8309L100.046 39.355V38.7156L100.049 38.3637L100.046 37.8482V37.3723V36.7948L100.049 36.3809L100.046 35.8654V35.3896V34.874L100.049 34.3982L100.044 33.8827L100.046 33.4068V32.8913V32.4154L100.041 31.6521L100.044 31.4241V30.9086L100.049 30.4327C100.036 29.2381 99.9496 27.4016 100.15 26.5366C100.406 25.4411 101.243 24.9008 102.661 24.9157C108.599 24.9735 115.19 24.976 122.434 24.9231C124.404 24.9083 125.121 25.6394 125.121 27.5825C125.129 41.8566 125.135 56.1307 125.138 70.4048Z" fill="white" fill-opacity="0.498"/>
<path d="M73.2504 24.9926H51.8814C50.8698 24.9926 50.0498 25.8126 50.0498 26.8241V73.1857C50.0498 74.1972 50.8698 75.0172 51.8814 75.0172H73.2504C74.2619 75.0172 75.082 74.1972 75.082 73.1857V26.8241C75.082 25.8126 74.2619 24.9926 73.2504 24.9926Z" fill="white"/>
<path d="M153.145 38.138C153.188 38.0948 153.239 38.0604 153.295 38.037C153.352 38.0137 153.412 38.0016 153.472 38.0017H164.987C165.103 38.0018 165.214 38.0471 165.297 38.1281L165.899 38.7328C165.93 38.7642 165.955 38.8016 165.972 38.8428C165.989 38.8841 165.998 38.9284 165.998 38.9733C165.996 39.7317 165.996 47.8122 165.996 63.2148C165.996 64.0203 166.105 65.0959 167.185 65.0934C172.458 65.0835 189.269 65.0827 217.619 65.091C218.957 65.091 220.147 64.9274 220.152 66.4888C220.172 73.0517 220.172 76.6851 220.154 77.3889C220.12 78.643 219.141 78.7322 218.082 78.7298C198.828 78.7166 185.916 78.719 179.344 78.7372C175.576 78.7488 172.922 78.6182 171.384 78.3456C167.309 77.6219 163.634 76.02 160.36 73.5399C159.405 72.8162 158.573 72.0207 157.849 71.1012C155.23 67.7668 153.546 63.9996 152.798 59.7995C152.514 58.1951 152.387 55.8274 152.419 52.6963C152.462 48.6218 152.467 44.035 152.436 38.9361C152.435 38.9079 152.44 38.88 152.45 38.854C152.461 38.828 152.476 38.8045 152.496 38.7849L153.145 38.138Z" fill="white"/>
<path d="M308.272 37.9943H297.54C296.786 37.9943 296.175 38.6057 296.175 39.3599V77.3493C296.175 78.1035 296.786 78.7149 297.54 78.7149H308.272C309.026 78.7149 309.638 78.1035 309.638 77.3493V39.3599C309.638 38.6057 309.026 37.9943 308.272 37.9943Z" fill="white"/>
<path d="M566.526 51.8388C566.673 51.985 566.73 52.1659 566.94 52.3741C570.361 55.7531 572.449 57.8349 573.206 58.6198C577.389 62.9595 579.719 68.5533 579.684 74.6057C579.675 76.4083 579.678 77.365 579.694 77.4757C579.826 78.2688 579.357 78.7273 578.629 78.7248C574.614 78.7215 571.045 78.7223 567.922 78.7273C567.193 78.7273 566.229 78.5265 566.227 77.5922C566.213 73.2268 566.202 69.6571 566.192 66.8829C566.187 65.7676 565.904 65.1083 564.71 65.1083C554.912 65.0951 542.5 65.0893 527.474 65.091C526.859 65.091 526.416 65.1744 526.145 65.3413C525.746 65.5891 525.542 65.9832 525.536 66.5235C525.498 69.6348 525.496 73.2392 525.531 77.3369C525.536 77.8491 525.326 78.2258 524.901 78.4671C524.582 78.6488 524.303 78.7389 524.064 78.7372C521.286 78.7207 517.693 78.7182 513.285 78.7298C513.252 78.7298 513.221 78.7221 513.193 78.7075L512.241 78.1895C512.158 78.1438 512.089 78.0766 512.04 77.9951C511.992 77.9136 511.966 77.8206 511.966 77.726C511.963 62.5431 511.963 50.1163 511.966 40.4454C511.966 39.179 511.788 38.5147 512.856 38.0438C512.921 38.016 512.992 38.0017 513.064 38.0017H524.552C524.619 38.0018 524.685 38.0225 524.74 38.0612C525.249 38.4346 525.503 38.8212 525.503 39.2211C525.507 46.4482 525.513 50.1155 525.521 50.2229C525.559 50.7532 525.752 51.1473 526.101 51.4051C526.231 51.5009 526.664 51.548 527.399 51.5463C533.843 51.5298 546.3 51.5257 564.769 51.5339C565.354 51.5339 565.761 51.6281 566.274 51.7099C566.37 51.7244 566.459 51.7696 566.526 51.8388Z" fill="white"/>
<path d="M100.05 38.3636L100.047 38.715C100.029 38.5979 100.03 38.4808 100.05 38.3636Z" fill="white" fill-opacity="0.2"/>
<path d="M100.05 40.3464L100.047 40.6978C100.029 40.5807 100.03 40.4636 100.05 40.3464Z" fill="white" fill-opacity="0.2"/>
<path d="M100.05 42.3292L100.047 42.6806C100.029 42.5635 100.03 42.4463 100.05 42.3292Z" fill="white" fill-opacity="0.2"/>
<path d="M98.1753 75.0049H76.9996C75.9319 75.0049 75.0664 75.8704 75.0664 76.9381V98.0444C75.0664 99.112 75.9319 99.9776 76.9996 99.9776H98.1753C99.243 99.9776 100.108 99.112 100.108 98.0444V76.9381C100.108 75.8704 99.243 75.0049 98.1753 75.0049Z" fill="white" fill-opacity="0.2"/>
<path d="M48.2009 74.9836L26.8716 75.0209C25.8601 75.0226 25.0415 75.8441 25.0432 76.8556L25.0805 98.185C25.0822 99.1965 25.9037 100.015 26.9152 100.013L48.2446 99.9761C49.2561 99.9743 50.0747 99.1529 50.0729 98.1413L50.0357 76.812C50.0339 75.8004 49.2125 74.9819 48.2009 74.9836Z" fill="white"/>
</g>
<defs>
<clipPath id="clip0_488_1658">
<rect width="632" height="100.376" fill="white"/>
</clipPath>
</defs>
</svg>
